<svg pointer-events="none" class="leaflet-zoom-animated" width="1440" height="720" viewBox="-448 26 1440 720" style="transform: translate3d(-448px, 26px, 0px);"><g><path class="leaflet-interactive" stroke="rgb(22, 27, 30)" stroke-opacity="0.7" stroke-width="1" stroke-linecap="round" stroke-linejoin="round" fill="rgb(36, 150, 162, 0.6)" fill-opacity="0.7" fill-rule="evenodd" d="M-61 699L-49 709L-35 702L-32 702L-28 707L-22 703L-17 703L-17 693L0 692L1 687L8 686L16 696L19 693L16 685L25 680L23 674L24 673L41 671L39 670L43 669L42 656L57 657L55 653L46 651L46 649L48 648L50 643L59 647L60 640L58 640L58 638L53 633L54 628L59 621L58 619L48 608L39 610L38 615L40 618L40 622L37 623L34 618L32 619L32 623L30 625L17 626L15 630L13 630L10 626L6 628L3 624L1 626L-32 627L-32 633L-38 633L-38 642L-31 643L-31 645L-33 645L-33 653L-42 653L-52 663L-58 666L-51 679L-56 686L-55 693L-61 699z"></path><path class="leaflet-interactive" stroke="rgb(22, 27, 30)" stroke-opacity="0.7" stroke-width="1" stroke-linecap="round" stroke-linejoin="round" fill="rgb(36, 150, 162, 0.6)" fill-opacity="0.7" fill-rule="evenodd" d="M-28 503L-27 504L-22 501L-18 506L-21 511L-18 524L-7 523L-8 539L-10 539L-13 542L-8 540L-8 545L-10 547L-6 545L5 553L1 559L2 560L5 557L10 556L16 552L18 555L21 556L25 554L22 546L28 540L44 532L45 530L51 530L58 526L59 527L64 518L66 518L92 501L96 501L100 497L102 501L105 503L117 503L117 491L112 483L110 475L113 471L113 465L109 459L111 449L91 449L86 438L83 437L82 435L74 436L66 440L58 437L57 440L50 445L49 448L40 450L28 450L20 448L19 449L6 446L-11 447L-11 460L-5 460L-2 463L-3 467L-4 466L-5 468L-19 470L-25 474L-27 477L-27 486L-24 497L-26 501L-24 501L-28 503z"></path><path class="leaflet-interactive" stroke="rgb(22, 27, 30)" stroke-opacity="0.7" stroke-width="1" stroke-linecap="round" stroke-linejoin="round" fill="rgb(36, 150, 162, 0.6)" fill-opacity="0.7" fill-rule="evenodd" d="M536 411L539 410L545 413L550 418L554 416L557 419L561 418L562 416L565 415L565 413L567 413L569 415L569 419L567 421L571 423L570 424L574 428L574 430L576 430L577 433L575 433L573 437L580 440L587 440L586 431L593 430L598 435L603 430L606 431L615 428L619 423L622 428L629 426L640 432L641 429L639 420L644 419L640 401L635 400L638 397L636 395L630 392L627 393L627 391L625 391L624 388L622 388L621 383L628 381L628 375L623 375L625 370L619 362L615 363L614 360L618 359L617 357L622 354L617 351L619 349L622 349L621 346L625 342L623 340L624 339L621 338L616 340L613 336L610 337L609 343L604 346L596 337L595 338L592 333L581 340L580 338L568 340L569 341L562 350L562 354L560 354L560 357L555 359L552 366L554 367L552 369L549 369L548 373L550 375L547 379L543 379L545 381L542 381L542 383L540 384L542 384L542 386L537 391L537 393L539 393L539 407L536 411z"></path><path class="leaflet-interactive" stroke="rgb(22, 27, 30)" stroke-opacity="0.7" stroke-width="1" stroke-linecap="round" stroke-linejoin="round" fill="rgb(36, 150, 162, 0.6)" fill-opacity="0.7" fill-rule="evenodd" d="M-143 415L-139 422L-135 420L-133 422L-130 419L-128 419L-128 417L-131 416L-131 418L-132 416L-124 413L-118 418L-119 422L-115 422L-110 419L-109 423L-102 420L-101 427L-99 427L-91 424L-91 419L-82 412L-77 411L-77 415L-72 413L-71 418L-69 416L-60 416L-56 413L-54 411L-56 406L-43 406L-40 409L-27 410L-24 402L-22 402L-23 398L-20 395L-18 384L-15 381L-15 373L-18 361L-22 352L-24 351L-26 344L-23 340L-19 339L-17 342L-13 339L-8 331L2 327L8 321L15 320L14 314L6 314L5 318L2 321L-4 318L-9 312L-7 310L-7 306L-6 307L-2 305L-3 304L0 299L-2 292L-4 290L-6 292L-8 289L-26 293L-30 291L-32 291L-32 293L-35 292L-39 288L-38 281L-42 277L-45 283L-49 285L-45 300L-42 300L-41 303L-46 302L-68 307L-71 302L-76 304L-85 304L-91 298L-97 296L-103 301L-102 300L-100 303L-101 305L-107 307L-108 305L-110 307L-114 306L-117 303L-116 301L-120 300L-122 297L-128 301L-127 303L-129 306L-134 305L-133 309L-128 313L-128 317L-122 315L-122 320L-124 324L-119 335L-119 340L-122 346L-122 357L-119 359L-119 361L-121 364L-124 365L-128 363L-132 365L-137 372L-137 379L-139 381L-136 392L-136 407L-141 411z"></path><path class="leaflet-interactive" stroke="rgb(22, 27, 30)" stroke-opacity="0.7" stroke-width="1" stroke-linecap="round" stroke-linejoin="round" fill="rgb(36, 150, 162, 0.6)" fill-opacity="0.7" fill-rule="evenodd" d="M104 587L106 591L115 600L113 604L117 605L119 612L136 620L142 611L146 609L155 610L156 616L158 618L158 624L164 634L180 626L183 632L181 636L184 637L184 635L190 632L189 630L201 625L200 624L203 622L210 622L213 619L211 616L211 604L216 601L220 602L230 599L234 595L234 593L236 593L245 586L244 583L246 581L243 579L242 575L231 575L226 570L222 559L226 556L223 549L224 527L216 529L216 531L215 529L210 532L211 531L207 531L205 533L201 531L201 533L197 533L188 526L189 523L181 521L176 526L170 527L164 532L150 536L145 534L144 535L146 540L145 542L149 544L154 550L158 551L159 545L164 546L164 542L172 547L164 556L160 556L155 559L153 563L150 563L138 572L134 573L135 571L131 567L129 555L127 558L126 557L123 559L127 570L121 576L121 583L118 585L109 583L104 586z"></path><path class="leaflet-interactive" stroke="rgb(22, 27, 30)" stroke-opacity="0.7" stroke-width="1" stroke-linecap="round" stroke-linejoin="round" fill="rgb(36, 150, 162, 0.6)" fill-opacity="0.7" fill-rule="evenodd" d="M21 557L22 566L38 578L39 585L34 589L34 591L41 596L40 597L54 613L59 621L64 614L73 615L79 612L80 618L95 612L100 607L104 608L111 606L115 600L106 591L104 587L110 583L115 585L118 585L120 583L121 576L127 571L123 559L126 557L127 558L129 555L131 567L135 571L134 573L136 573L146 565L155 561L154 559L163 555L164 556L172 547L164 541L164 546L159 545L158 551L152 549L150 545L145 542L145 532L140 525L139 524L136 527L134 525L133 515L131 515L129 510L123 510L119 502L112 504L105 503L100 498L94 502L92 501L68 517L64 518L62 520L61 526L58 526L49 531L48 529L45 530L41 534L36 535L28 540L28 542L22 546L25 554L23 555z"></path><path class="leaflet-interactive" stroke="rgb(22, 27, 30)" stroke-opacity="0.7" stroke-width="1" stroke-linecap="round" stroke-linejoin="round" fill="rgb(36, 150, 162, 0.6)" fill-opacity="0.7" fill-rule="evenodd" d="M425 596L430 587L429 586L432 583L427 582L438 570L439 572L450 567L454 567L461 558L467 558L472 554L480 552L483 549L485 551L483 553L484 554L489 550L493 551L491 544L493 543L494 546L497 543L495 543L491 539L495 541L497 539L496 538L506 529L507 530L511 527L512 528L513 521L520 514L529 510L534 504L538 511L539 510L543 512L542 514L545 517L543 522L544 523L548 523L549 526L554 526L554 530L558 533L560 530L562 530L567 535L572 532L574 533L577 543L580 543L582 546L582 552L578 557L578 560L580 562L579 565L568 574L566 574L567 577L563 583L559 583L557 585L558 590L557 593L554 594L556 597L555 598L551 598L547 592L535 588L533 584L529 586L530 589L524 596L524 598L517 594L511 600L510 605L508 605L502 599L494 595L489 600L495 607L491 611L487 611L479 617L473 607L471 607L463 616L461 616L462 619L457 622L453 615L452 607L446 603L445 600L440 595L425 596zM496 545L498 545L496 545zM502 551L505 558L508 559L506 562L506 564L509 567L507 567L507 571L509 574L507 578L509 574L511 575L509 571L511 571L512 574L514 570L514 566L511 565L511 561L513 559L515 560L514 557L509 556L504 551L502 551zM510 604L510 604z"></path><path class="leaflet-interactive" stroke="rgb(22, 27, 30)" stroke-opacity="0.7" stroke-width="1" stroke-linecap="round" stroke-linejoin="round" fill="rgb(36, 150, 162, 0.6)" fill-opacity="0.7" fill-rule="evenodd" d="M-49 709L-7 747L19 747L21 745L33 747L33 741L30 741L25 738L23 739L20 736L19 727L23 725L37 726L36 724L41 723L41 718L48 719L48 731L50 735L49 737L51 739L52 738L60 741L65 739L65 735L72 736L72 732L75 733L74 734L77 737L79 735L85 735L86 725L83 716L90 714L83 703L84 702L79 688L80 683L75 677L75 675L81 673L80 670L82 665L76 658L78 654L76 650L87 644L87 642L84 641L82 630L75 624L75 622L68 614L65 614L54 627L53 633L58 638L57 639L60 640L59 646L50 643L45 651L54 653L56 654L57 657L42 656L42 670L39 669L41 670L23 673L25 680L23 680L17 685L19 693L18 694L16 695L8 686L1 687L0 692L-17 693L-17 703L-21 703L-28 707L-32 702L-34 702L-49 709z"></path><path class="leaflet-interactive" stroke="rgb(22, 27, 30)" stroke-opacity="0.7" stroke-width="1" stroke-linecap="round" stroke-linejoin="round" fill="rgb(36, 150, 162, 0.6)" fill-opacity="0.7" fill-rule="evenodd" d="M168 508L168 511L173 515L173 519L170 520L168 525L169 528L181 522L189 522L188 526L199 534L202 531L206 533L206 531L216 531L216 529L224 527L223 549L226 556L222 559L227 571L231 575L243 576L243 579L245 581L244 585L248 592L256 587L254 577L271 576L269 572L269 566L264 559L260 561L258 559L252 545L260 539L260 536L263 533L262 528L265 525L259 518L256 521L249 512L260 507L258 506L258 500L263 499L261 495L261 490L264 483L265 467L267 464L276 460L286 458L289 459L289 452L297 444L295 442L296 440L301 439L302 436L308 433L309 436L314 433L312 428L308 428L309 416L307 400L290 404L289 406L284 407L277 405L260 413L255 413L253 415L252 414L244 417L240 421L239 416L235 412L228 413L209 443L209 451L206 454L203 453L198 457L196 463L195 481L192 482L191 484L192 487L201 481L201 486L199 487L201 494L199 494L193 500L187 502L183 506L180 502L171 506z"></path><path class="leaflet-interactive" stroke="rgb(22, 27, 30)" stroke-opacity="0.7" stroke-width="1" stroke-linecap="round" stroke-linejoin="round" fill="rgb(36, 150, 162, 0.6)" fill-opacity="0.7" fill-rule="evenodd" d="M355 302L359 324L375 355L396 405L405 421L406 436L409 441L411 450L415 450L420 453L422 458L424 459L422 461L416 461L417 463L422 464L434 462L436 464L433 476L436 475L439 478L442 476L444 472L459 473L461 471L465 471L468 468L471 469L469 467L469 463L471 461L472 456L469 452L467 442L473 434L483 434L498 437L500 435L499 427L501 423L506 424L506 422L509 423L509 421L513 421L515 423L515 421L519 419L518 418L524 418L523 417L525 415L526 416L526 414L528 414L527 413L528 414L528 412L529 413L529 411L533 407L537 407L535 396L531 395L528 390L522 396L520 395L522 392L522 388L520 387L518 389L512 390L511 393L511 391L501 386L511 366L517 367L516 360L518 360L518 357L510 349L513 346L503 341L503 334L509 327L507 324L502 329L498 324L494 322L494 320L498 318L496 314L498 312L501 314L501 310L499 308L500 307L496 306L493 309L488 305L495 296L494 294L499 289L496 283L495 284L495 281L506 276L508 270L492 253L490 253L485 258L481 258L476 255L470 255L464 259L465 260L463 267L466 272L459 277L453 273L451 275L449 274L441 278L437 276L427 280L420 285L417 284L406 288L390 288L373 295z"></path><path class="leaflet-interactive" stroke="rgb(22, 27, 30)" stroke-opacity="0.7" stroke-width="1" stroke-linecap="round" stroke-linejoin="round" fill="rgb(36, 150, 162, 0.6)" fill-opacity="0.7" fill-rule="evenodd" d="M330 453L333 456L340 459L343 463L340 464L342 481L336 487L339 490L341 490L343 494L342 496L339 497L338 502L333 507L333 512L334 513L337 511L341 514L344 513L352 524L352 526L348 530L348 534L358 547L358 549L367 559L371 559L373 554L375 554L376 552L373 550L374 545L387 545L389 548L391 546L399 548L413 548L416 546L417 549L421 549L424 547L430 524L444 521L439 509L435 504L437 504L437 499L440 494L440 490L459 478L460 474L464 476L467 471L461 471L459 473L444 472L444 474L440 478L438 478L433 474L436 464L434 461L418 464L416 462L417 461L424 460L421 457L421 453L415 450L411 450L406 436L405 421L371 435L368 435L366 437L362 436L351 440L341 448L330 453z"></path><path class="leaflet-interactive" stroke="rgb(22, 27, 30)" stroke-opacity="0.7" stroke-width="1" stroke-linecap="round" stroke-linejoin="round" fill="rgb(36, 150, 162, 0.6)" fill-opacity="0.7" fill-rule="evenodd" d="M195 634L196 642L201 645L204 652L199 653L198 658L196 658L195 662L199 668L196 671L196 673L198 673L206 670L206 668L210 667L217 662L213 653L225 648L229 655L248 643L251 642L252 645L256 644L261 641L258 636L260 632L264 630L266 630L267 632L270 628L281 620L284 624L287 621L283 608L284 606L291 604L297 600L301 593L301 589L297 587L296 583L293 582L290 576L284 574L281 571L272 576L254 577L257 587L248 592L245 587L234 593L234 595L229 600L221 602L217 601L211 604L211 616L213 619L207 623L203 622L200 624L201 625L199 625L199 627L201 630L199 633L196 634z"></path><path class="leaflet-interactive" stroke="rgb(22, 27, 30)" stroke-opacity="0.7" stroke-width="1" stroke-linecap="round" stroke-linejoin="round" fill="rgb(36, 150, 162, 0.6)" fill-opacity="0.7" fill-rule="evenodd" d="M68 614L75 622L75 624L82 630L84 641L87 642L87 644L76 649L78 654L76 658L81 662L82 665L80 669L81 672L75 675L75 677L80 683L79 690L84 702L83 703L86 706L91 717L96 714L112 710L121 714L126 707L129 710L140 710L145 706L153 705L156 710L176 700L175 692L181 688L187 686L188 689L198 685L195 677L197 676L195 671L199 669L195 660L196 658L198 658L198 654L203 652L199 642L199 644L197 644L196 641L195 634L201 631L199 627L197 626L189 630L190 632L182 638L181 634L183 632L180 626L164 634L158 624L158 618L156 616L155 610L142 610L137 620L135 620L120 612L118 607L113 604L109 607L100 607L95 612L90 613L84 617L83 616L80 618L79 613L73 615z"></path><path class="leaflet-interactive" stroke="rgb(22, 27, 30)" stroke-opacity="0.7" stroke-width="1" stroke-linecap="round" stroke-linejoin="round" fill="rgb(36, 150, 162, 0.6)" fill-opacity="0.7" fill-rule="evenodd" d="M-28 416L-28 420L-18 420L-12 425L-15 430L-12 431L-12 433L-9 432L-5 434L-5 432L-4 435L-1 434L1 437L3 437L2 438L6 436L6 438L9 437L11 446L14 448L42 450L44 448L49 448L49 445L56 441L58 437L65 440L68 438L82 435L83 437L86 438L89 444L89 448L110 448L111 449L109 455L116 455L119 452L114 448L114 440L118 428L123 429L120 424L121 421L130 421L130 429L134 427L142 427L144 422L154 416L154 413L158 408L163 407L163 400L170 398L170 396L176 396L176 392L172 390L172 388L185 385L183 375L181 375L178 367L178 365L185 362L182 357L176 323L158 328L155 333L152 329L150 321L141 327L139 333L136 336L135 335L129 339L129 357L117 357L115 376L110 377L107 386L105 386L99 384L102 381L100 378L95 377L94 374L86 375L86 372L83 369L79 372L71 374L72 358L66 362L60 359L56 364L55 361L44 365L31 365L29 356L30 355L41 349L47 349L52 346L45 339L46 334L44 334L43 329L48 328L49 326L48 323L43 319L46 316L42 315L41 312L19 312L17 313L17 315L15 314L15 320L8 321L2 327L-8 331L-16 342L-18 339L-23 340L-26 344L-18 361L-15 381L-18 384L-19 392L-23 397L-22 402L-24 402L-27 408L-27 410L-18 411L-27 416z"></path><path class="leaflet-interactive" stroke="rgb(22, 27, 30)" stroke-opacity="0.7" stroke-width="1" stroke-linecap="round" stroke-linejoin="round" fill="rgb(36, 150, 162, 0.6)" fill-opacity="0.7" fill-rule="evenodd" d="M-116 641L-110 649L-109 655L-106 660L-61 699L-56 693L-55 683L-51 680L-58 665L-51 662L-43 653L-33 653L-33 646L-31 645L-31 643L-38 642L-38 634L-32 633L-32 627L2 626L2 624L4 624L5 628L9 626L13 631L17 628L17 626L31 625L33 618L35 618L36 623L40 622L40 618L38 616L39 610L49 608L40 598L41 596L34 591L33 589L38 587L39 585L38 578L22 567L21 556L18 555L17 552L5 557L2 560L2 556L5 553L-6 545L-10 547L-8 545L-8 539L-12 542L-13 541L-9 539L-7 523L-18 524L-16 528L-21 533L-23 533L-55 557L-50 566L-59 567L-66 570L-65 577L-70 583L-72 583L-69 595L-84 601L-84 604L-77 604L-75 612L-77 616L-80 618L-80 625L-87 632L-86 635L-92 637L-94 640L-97 641L-99 636L-102 637L-115 634z"></path><path class="leaflet-interactive" stroke="rgb(22, 27, 30)" stroke-opacity="0.7" stroke-width="1" stroke-linecap="round" stroke-linejoin="round" fill="rgb(36, 150, 162, 0.6)" fill-opacity="0.7" fill-rule="evenodd" d="M-171 273L-170 276L-166 274L-165 275L-163 273L-164 272L-161 269L-161 271L-158 270L-159 269L-157 267L-155 267L-154 270L-153 267L-148 267L-148 269L-144 271L-144 273L-147 272L-149 274L-148 290L-146 294L-148 294L-144 298L-145 300L-141 297L-136 304L-132 306L-130 306L-127 303L-127 299L-123 297L-116 301L-117 303L-114 306L-111 307L-108 305L-107 307L-101 305L-100 303L-102 300L-103 301L-97 296L-91 298L-85 304L-76 304L-71 302L-69 307L-46 302L-41 303L-42 300L-45 300L-49 286L-47 283L-45 283L-42 277L-38 280L-23 267L-24 264L-10 256L-13 250L-12 249L0 247L2 249L0 256L2 257L8 250L9 240L7 236L12 236L17 228L16 226L13 226L11 218L17 215L17 210L26 212L28 224L36 223L36 219L40 216L38 216L39 199L51 197L66 158L67 150L-61 149L-71 151L-92 142L-146 138L-137 187L-131 197L-133 207L-131 208L-132 209L-129 228L-143 234L-142 242L-146 242L-147 244L-152 243L-159 260L-169 261L-169 268L-171 273z"></path><path class="leaflet-interactive" stroke="rgb(22, 27, 30)" stroke-opacity="0.7" stroke-width="1" stroke-linecap="round" stroke-linejoin="round" fill="rgb(36, 150, 162, 0.6)" fill-opacity="0.7" fill-rule="evenodd" d="M550 598L557 609L559 615L571 623L571 633L574 632L574 634L570 638L567 637L562 640L562 644L560 646L560 648L562 648L564 645L579 639L586 634L590 634L590 632L593 630L597 632L598 635L605 636L607 633L609 633L612 635L613 639L621 636L626 629L626 623L633 615L637 614L644 607L648 609L674 592L658 565L656 567L651 566L651 571L649 571L650 572L647 575L643 575L642 572L634 576L621 551L615 552L610 548L608 543L603 543L600 550L598 551L595 549L594 556L586 554L589 553L590 550L587 544L585 546L581 546L582 552L578 557L578 560L580 562L579 565L568 574L566 574L567 577L564 582L559 583L557 585L558 590L557 593L554 594L556 597L551 598z"></path><path class="leaflet-interactive" stroke="rgb(22, 27, 30)" stroke-opacity="0.7" stroke-width="1" stroke-linecap="round" stroke-linejoin="round" fill="rgb(36, 150, 162, 0.6)" fill-opacity="0.7" fill-rule="evenodd" d="M480 434L486 454L487 455L493 450L494 453L492 455L492 459L490 459L494 471L493 472L489 469L488 470L488 478L489 479L495 475L496 477L501 476L503 478L502 485L504 485L505 488L507 486L505 478L508 481L510 479L518 484L520 482L524 482L526 487L529 486L531 482L533 482L533 484L538 484L541 483L543 479L545 479L545 481L549 479L554 480L554 478L560 470L562 472L565 471L563 469L565 465L569 465L569 467L569 465L572 462L572 464L574 464L574 462L575 463L577 459L587 459L585 457L586 456L584 456L584 454L585 449L588 447L587 443L589 441L580 440L573 437L574 434L577 433L576 430L574 430L574 428L570 424L571 423L567 421L569 419L569 415L565 413L564 416L558 419L556 417L550 418L544 412L540 410L537 411L536 410L539 407L538 406L534 408L533 407L529 411L529 413L528 412L529 413L527 413L528 414L526 414L526 416L525 415L523 417L524 418L518 418L519 419L516 420L515 423L512 421L513 422L510 421L505 424L502 423L499 426L500 436L498 437L480 434z"></path><path class="leaflet-interactive" stroke="rgb(22, 27, 30)" stroke-opacity="0.7" stroke-width="1" stroke-linecap="round" stroke-linejoin="round" fill="rgb(36, 150, 162, 0.6)" fill-opacity="0.7" fill-rule="evenodd" d="M423 555L430 524L444 521L439 509L435 504L437 504L437 499L440 494L440 490L459 478L460 474L464 476L468 468L471 469L469 467L469 463L471 461L472 456L469 452L467 442L473 434L479 434L486 454L487 455L493 450L494 453L492 455L492 459L490 459L494 471L493 472L489 469L488 470L488 478L489 479L495 475L496 477L501 476L503 478L502 485L504 485L505 488L507 486L505 478L508 481L510 479L518 484L520 482L524 482L526 487L527 486L529 488L525 492L523 492L517 500L525 504L527 510L513 521L512 528L511 527L508 530L506 528L504 532L495 537L495 541L493 541L490 538L494 538L491 535L495 533L495 530L493 528L493 522L495 522L494 519L496 517L496 510L494 508L493 509L488 504L490 493L488 493L482 487L481 482L479 486L472 482L469 484L465 484L464 493L466 497L461 501L459 505L453 500L448 501L447 504L439 503L451 504L452 507L458 505L469 515L484 513L486 515L484 521L481 524L475 524L475 530L477 530L480 527L486 530L486 528L486 530L490 532L488 537L490 539L486 537L488 535L484 537L484 549L481 552L473 554L466 558L460 558L454 567L450 567L440 572L438 570L435 574L432 573L432 569L423 556zM475 474L478 477L477 480L483 478L481 472L477 472L475 474zM497 515L497 519L499 519L501 522L500 517L505 513L504 510L501 513L501 511L499 511L500 512L498 512L497 515zM406 548L411 554L414 552L415 553L417 550L416 546L413 548L406 548z"></path><path class="leaflet-interactive" stroke="rgb(22, 27, 30)" stroke-opacity="0.7" stroke-width="1" stroke-linecap="round" stroke-linejoin="round" fill="rgb(36, 150, 162, 0.6)" fill-opacity="0.7" fill-rule="evenodd" d="M295 602L300 619L308 630L311 642L313 644L318 643L325 648L329 646L335 652L342 648L346 656L356 657L351 660L349 675L353 673L358 665L367 661L374 646L382 640L385 641L386 638L391 634L393 637L397 634L396 632L403 623L403 619L409 614L414 607L418 605L426 597L426 593L430 587L429 586L432 583L427 582L435 574L432 573L432 569L423 556L425 546L421 549L417 549L416 552L414 552L411 555L407 548L391 546L389 548L386 545L373 545L373 551L376 552L373 554L371 558L363 558L361 560L363 563L360 564L357 561L351 565L350 564L348 568L346 568L350 576L345 582L335 587L330 592L321 593L319 587L307 591L306 590L301 592L296 601z"></path><path class="leaflet-interactive" stroke="rgb(22, 27, 30)" stroke-opacity="0.7" stroke-width="1" stroke-linecap="round" stroke-linejoin="round" fill="rgb(36, 150, 162, 0.6)" fill-opacity="0.7" fill-rule="evenodd" d="M-39 288L-33 293L-32 290L-26 293L-10 289L-8 289L-6 292L-4 290L1 297L-1 297L0 302L-2 302L-2 304L-3 303L-3 307L-6 306L-5 307L-6 306L-8 308L-7 309L-9 312L2 322L6 314L14 314L17 316L19 312L40 312L42 315L46 316L43 319L48 323L49 328L43 328L44 334L46 334L45 339L52 346L47 349L41 349L30 355L30 365L44 365L55 361L56 364L59 359L62 359L64 361L65 360L66 363L66 361L71 358L71 374L79 372L83 369L86 372L85 375L93 374L95 377L101 379L102 381L99 383L100 384L101 383L104 386L107 386L110 377L115 376L117 357L129 357L129 339L134 337L134 335L138 335L139 330L142 326L150 321L154 333L158 328L176 323L179 340L206 318L213 308L231 290L242 291L258 268L233 274L171 191L136 178L66 158L51 197L42 198L39 201L38 216L40 216L34 222L36 223L29 224L27 220L28 218L26 218L26 212L18 210L17 215L11 218L13 226L17 227L12 236L7 236L9 240L8 250L2 257L0 256L2 249L0 247L-5 249L-9 248L-13 250L-10 256L-24 264L-23 266L-38 280L-38 284z"></path><path class="leaflet-interactive" stroke="rgb(22, 27, 30)" stroke-opacity="0.7" stroke-width="1" stroke-linecap="round" stroke-linejoin="round" fill="rgb(36, 150, 162, 0.6)" fill-opacity="0.7" fill-rule="evenodd" d="M364 664L368 668L376 666L377 670L375 674L376 679L372 682L365 684L368 688L368 692L365 695L373 701L371 703L374 706L374 708L376 708L376 706L379 704L387 703L387 705L396 709L397 712L403 715L408 710L408 715L406 717L405 722L409 720L409 722L412 725L416 725L418 726L418 728L421 727L421 731L424 735L428 737L428 735L430 735L434 738L438 736L444 736L437 731L437 729L451 715L447 711L460 699L456 695L486 665L484 663L484 659L472 659L469 656L465 658L459 657L458 649L455 644L456 642L450 638L449 631L449 622L453 613L452 607L446 603L445 600L440 595L426 596L426 598L413 608L408 615L402 620L403 622L398 627L395 636L393 637L391 634L386 638L385 641L382 640L375 646L374 645L373 651L368 656L368 661L364 664z"></path><path class="leaflet-interactive" stroke="rgb(22, 27, 30)" stroke-opacity="0.7" stroke-width="1" stroke-linecap="round" stroke-linejoin="round" fill="rgb(36, 150, 162, 0.6)" fill-opacity="0.7" fill-rule="evenodd" d="M-238 443L-230 447L-231 451L-228 452L-228 458L-225 458L-221 465L-222 472L-220 475L-223 479L-223 483L-218 483L-218 493L-213 493L-211 498L-209 505L-212 505L-213 507L-216 516L-215 519L-205 519L-205 517L-199 517L-201 525L-198 535L-196 535L-196 532L-188 534L-184 554L-182 555L-179 554L-179 548L-175 544L-172 544L-170 541L-164 541L-161 538L-147 535L-145 534L-144 531L-139 530L-137 528L-138 511L-131 510L-128 504L-125 505L-124 500L-120 499L-119 497L-115 497L-114 495L-113 490L-125 484L-126 479L-128 478L-128 473L-119 468L-121 466L-122 457L-129 452L-128 448L-134 448L-138 446L-137 442L-133 437L-125 438L-120 433L-118 425L-120 422L-118 417L-124 413L-128 415L-129 414L-131 416L-131 418L-131 416L-128 417L-128 419L-130 419L-133 423L-134 420L-138 422L-141 421L-144 422L-144 426L-147 425L-147 427L-149 425L-151 427L-155 425L-155 423L-157 425L-158 422L-162 424L-162 418L-165 418L-165 420L-168 421L-167 422L-174 421L-176 429L-181 429L-183 430L-183 432L-185 431L-186 435L-188 434L-188 437L-186 439L-197 439L-196 427L-198 422L-202 424L-202 422L-205 421L-204 418L-203 420L-203 416L-207 417L-207 415L-209 417L-210 416L-208 414L-212 416L-214 414L-217 415L-218 412L-220 414L-218 417L-217 424L-232 432L-228 436L-233 439z"></path><path class="leaflet-interactive" stroke="rgb(22, 27, 30)" stroke-opacity="0.7" stroke-width="1" stroke-linecap="round" stroke-linejoin="round" fill="rgb(36, 150, 162, 0.6)" fill-opacity="0.7" fill-rule="evenodd" d="M517 500L525 504L527 510L529 510L534 504L538 511L539 510L543 512L542 514L545 517L543 522L548 523L549 526L554 526L554 530L556 532L558 533L560 530L562 530L567 535L572 532L574 533L578 544L580 543L582 546L586 544L589 546L590 550L589 553L586 554L587 555L593 556L595 549L600 551L601 546L604 543L608 543L613 551L621 551L634 576L642 572L643 575L647 575L650 572L649 571L651 571L651 566L656 566L664 561L664 555L662 550L659 550L654 546L662 538L665 538L664 535L672 533L668 528L671 527L667 523L663 515L661 513L654 511L654 509L649 504L649 502L653 500L656 492L657 477L656 474L647 467L654 460L656 460L656 452L652 444L647 446L642 443L636 444L629 439L639 432L633 427L627 426L622 429L620 423L614 429L606 431L604 430L598 435L593 430L586 431L586 439L589 442L588 447L583 454L587 459L577 459L576 462L574 462L574 464L572 464L572 462L569 465L569 467L569 465L565 465L563 469L565 471L562 472L560 470L554 478L554 480L549 479L545 481L545 479L543 479L543 481L538 484L534 484L532 482L529 485L530 486L528 486L529 489L526 492L520 494L517 500z"></path><path class="leaflet-interactive" stroke="rgb(22, 27, 30)" stroke-opacity="0.7" stroke-width="1" stroke-linecap="round" stroke-linejoin="round" fill="rgb(36, 150, 162, 0.6)" fill-opacity="0.7" fill-rule="evenodd" d="M109 455L109 459L113 465L113 471L110 475L112 483L118 493L116 497L117 503L118 502L120 504L123 510L130 511L131 515L133 515L134 525L136 527L139 524L147 536L164 532L169 527L168 526L170 520L173 519L173 515L168 511L168 508L180 502L183 506L187 502L193 500L199 494L201 494L199 487L201 487L201 481L192 487L191 484L191 482L195 480L196 463L199 455L205 452L209 452L209 443L228 413L235 412L239 416L240 421L244 417L249 416L251 414L254 415L256 413L260 413L276 405L284 407L289 406L290 404L307 400L306 385L371 347L359 324L355 302L352 303L320 255L258 268L242 291L231 290L213 308L206 318L179 340L182 357L185 362L178 365L178 370L179 369L181 375L183 375L185 385L172 388L172 390L176 392L176 395L171 396L170 398L163 399L163 407L158 408L154 413L153 417L144 422L142 427L134 427L131 429L130 421L121 421L120 424L123 429L118 428L114 440L114 449L119 452L116 455L110 455z"></path><path class="leaflet-interactive" stroke="rgb(22, 27, 30)" stroke-opacity="0.7" stroke-width="1" stroke-linecap="round" stroke-linejoin="round" fill="rgb(36, 150, 162, 0.6)" fill-opacity="0.7" fill-rule="evenodd" d="M-238 387L-235 390L-236 393L-223 403L-228 404L-234 410L-229 413L-229 415L-226 417L-221 416L-221 414L-219 416L-219 412L-219 414L-217 415L-214 414L-212 416L-208 414L-210 416L-209 417L-207 415L-207 417L-204 416L-203 419L-204 418L-205 421L-203 421L-202 424L-198 422L-196 427L-197 439L-186 439L-188 435L-186 435L-185 431L-183 432L-182 429L-175 429L-174 421L-167 422L-168 421L-165 420L-165 418L-161 418L-161 421L-163 421L-162 424L-158 422L-157 425L-155 423L-156 424L-151 427L-149 425L-147 427L-147 425L-144 426L-143 425L-145 425L-145 423L-141 421L-140 422L-143 415L-141 411L-136 407L-136 389L-139 382L-137 380L-138 372L-136 372L-132 365L-129 363L-124 365L-119 362L-119 360L-122 357L-122 347L-119 341L-119 335L-124 324L-122 320L-122 315L-141 321L-143 323L-144 317L-149 319L-154 316L-159 324L-180 324L-179 326L-185 332L-187 337L-192 336L-193 338L-198 338L-198 341L-205 350L-217 359L-222 368L-222 370L-219 370L-215 374L-213 374L-213 385L-225 386L-237 382z"></path><path class="leaflet-interactive" stroke="rgb(22, 27, 30)" stroke-opacity="0.7" stroke-width="1" stroke-linecap="round" stroke-linejoin="round" fill="rgb(36, 150, 162, 0.6)" fill-opacity="0.7" fill-rule="evenodd" d="M-138 447L-128 448L-129 452L-122 457L-121 465L-119 468L-128 473L-126 483L-119 486L-117 489L-115 488L-113 490L-114 494L-106 496L-106 504L-95 504L-93 502L-88 503L-86 501L-82 501L-80 504L-80 510L-75 511L-74 521L-42 548L-16 529L-21 511L-18 506L-21 501L-26 504L-28 502L-24 502L-27 478L-21 471L-12 468L-7 468L-4 466L-3 467L-1 463L-3 463L-4 460L-11 460L-9 457L-11 455L-10 451L-12 447L10 447L11 444L9 437L6 438L6 436L2 438L3 437L1 437L-2 434L-3 435L-6 432L-6 434L-9 432L-12 433L-12 431L-15 430L-12 425L-14 423L-18 420L-27 420L-28 416L-20 413L-18 411L-19 410L-40 409L-42 406L-55 406L-54 411L-60 416L-69 416L-71 418L-72 413L-77 415L-77 411L-81 412L-86 414L-91 419L-91 424L-99 427L-101 427L-102 420L-109 423L-110 420L-119 422L-118 425L-120 433L-125 438L-133 437L-137 441L-138 446z"></path><path class="leaflet-interactive" stroke="rgb(22, 27, 30)" stroke-opacity="0.7" stroke-width="1" stroke-linecap="round" stroke-linejoin="round" fill="rgb(36, 150, 162, 0.6)" fill-opacity="0.7" fill-rule="evenodd" d="M449 622L450 637L451 640L455 640L456 642L455 644L458 649L460 658L469 657L471 659L484 659L484 663L487 666L490 662L493 662L490 659L497 652L500 650L502 652L507 652L508 647L510 649L514 670L523 668L522 664L526 664L525 650L530 648L532 643L542 643L548 645L557 640L562 641L564 638L569 636L569 638L574 634L574 632L571 633L571 623L559 615L550 596L545 591L535 588L533 584L529 586L530 589L524 596L524 598L517 594L511 600L510 605L508 605L502 599L494 595L489 600L495 607L491 611L487 611L479 617L473 607L471 607L463 616L461 616L461 620L457 622L453 615L449 622zM510 604L510 604z"></path><path class="leaflet-interactive" stroke="rgb(22, 27, 30)" stroke-opacity="0.7" stroke-width="1" stroke-linecap="round" stroke-linejoin="round" fill="rgb(36, 150, 162, 0.6)" fill-opacity="0.7" fill-rule="evenodd" d="M-184 607L-184 641L-137 620L-135 617L-138 613L-134 610L-132 604L-112 611L-103 607L-94 607L-89 598L-89 595L-83 595L-76 590L-71 589L-72 584L-65 577L-65 569L-50 566L-53 563L-55 557L-42 548L-62 530L-74 522L-75 511L-80 510L-81 501L-85 501L-88 503L-93 502L-95 504L-105 504L-106 496L-114 494L-119 499L-125 500L-125 504L-128 504L-131 507L-130 510L-138 511L-137 529L-144 531L-146 535L-170 541L-172 544L-175 544L-179 547L-178 550L-172 552L-173 556L-171 556L-169 565L-171 566L-173 576L-183 575L-184 603z"></path><path class="leaflet-interactive" stroke="rgb(22, 27, 30)" stroke-opacity="0.7" stroke-width="1" stroke-linecap="round" stroke-linejoin="round" fill="rgb(36, 150, 162, 0.6)" fill-opacity="0.7" fill-rule="evenodd" d="M249 512L256 521L259 518L265 525L262 528L263 533L260 536L260 539L252 545L252 548L259 560L260 561L264 558L265 559L270 568L269 572L272 576L281 571L284 574L290 576L292 582L295 581L297 587L299 589L300 588L301 591L307 591L319 587L321 593L330 592L350 577L346 568L348 568L350 564L351 565L357 561L359 564L362 563L361 559L365 557L348 534L348 530L352 526L352 524L344 513L341 514L337 511L334 513L333 512L333 507L338 502L339 496L343 495L343 491L336 488L342 481L340 469L341 464L343 463L339 458L330 453L341 448L351 440L359 438L361 436L368 436L380 430L405 421L392 396L371 347L306 385L309 416L308 428L312 428L314 434L309 436L308 433L302 436L301 438L296 439L295 442L297 444L289 453L289 458L276 460L265 466L264 482L261 491L263 499L258 500L258 506L260 506L258 508L249 512z"></path><path class="leaflet-interactive" stroke="rgb(22, 27, 30)" stroke-opacity="0.7" stroke-width="1" stroke-linecap="round" stroke-linejoin="round" fill="rgb(36, 150, 162, 0.6)" fill-opacity="0.7" fill-rule="evenodd" d="M459 505L469 515L484 513L486 515L484 521L481 524L475 524L475 530L477 530L480 527L486 530L486 528L486 530L490 532L490 535L494 535L495 530L493 528L493 522L495 522L494 519L496 517L496 510L494 508L493 509L488 504L490 493L488 493L482 487L481 482L479 486L472 482L469 484L465 484L464 493L466 497L461 501L459 505zM475 474L478 477L477 480L483 478L481 472L477 472L475 474z"></path><path class="leaflet-interactive" stroke="rgb(22, 27, 30)" stroke-opacity="0.7" stroke-width="1" stroke-linecap="round" stroke-linejoin="round" fill="rgb(36, 150, 162, 0.6)" fill-opacity="0.7" fill-rule="evenodd" d="M483 540L483 550L485 552L483 553L484 554L489 550L493 551L491 544L493 543L494 546L497 543L495 543L490 538L494 538L490 534L488 536L490 538L489 539L487 535L485 535L485 539L483 540zM494 538L496 540L497 539L495 537L494 538zM496 545L498 545L496 545z"></path><path class="leaflet-interactive" stroke="rgb(22, 27, 30)" stroke-opacity="0.7" stroke-width="1" stroke-linecap="round" stroke-linejoin="round" fill="rgb(36, 150, 162, 0.6)" fill-opacity="0.7" fill-rule="evenodd" d="M502 551L505 558L508 559L506 562L506 564L509 567L507 567L507 571L509 574L507 578L509 574L511 575L509 571L511 571L512 574L514 570L514 566L511 565L511 561L513 559L515 560L514 557L509 556L504 551L502 551z"></path><path class="leaflet-interactive" stroke="rgb(22, 27, 30)" stroke-opacity="0.7" stroke-width="1" stroke-linecap="round" stroke-linejoin="round" fill="rgb(36, 150, 162, 0.6)" fill-opacity="0.7" fill-rule="evenodd" d="M439 504L451 504L452 507L457 506L459 504L457 504L453 500L448 501L447 504L439 503z"></path><path class="leaflet-interactive" stroke="rgb(22, 27, 30)" stroke-opacity="0.7" stroke-width="1" stroke-linecap="round" stroke-linejoin="round" fill="rgb(36, 150, 162, 0.6)" fill-opacity="0.7" fill-rule="evenodd" d="M497 515L497 519L499 519L501 522L500 517L505 513L504 510L501 513L501 511L499 511L500 512L498 512L497 515z"></path></g></svg>